<?xml version="1.0" encoding="UTF-8" standalone="no"?>
<svg
   xmlns:dc="http://purl.org/dc/elements/1.1/"
   xmlns:cc="http://creativecommons.org/ns#"
   xmlns:rdf="http://www.w3.org/1999/02/22-rdf-syntax-ns#"
   xmlns:svg="http://www.w3.org/2000/svg"
   xmlns="http://www.w3.org/2000/svg"
   xmlns:sodipodi="http://sodipodi.sourceforge.net/DTD/sodipodi-0.dtd"
   xmlns:inkscape="http://www.inkscape.org/namespaces/inkscape"
   viewBox="0 0 195.76807 147.67977"
   version="1.1"
   id="svg55"
   sodipodi:docname="logo.svg"
   width="195.76807"
   height="147.67976"
   inkscape:version="1.0.1 (3bc2e813f5, 2020-09-07)">
  <metadata
     id="metadata59">
    <rdf:RDF>
      <cc:Work
         rdf:about="">
        <dc:format>image/svg+xml</dc:format>
        <dc:type
           rdf:resource="http://purl.org/dc/dcmitype/StillImage" />
        <dc:title></dc:title>
      </cc:Work>
    </rdf:RDF>
  </metadata>
  <sodipodi:namedview
     pagecolor="#ffffff"
     bordercolor="#666666"
     borderopacity="1"
     objecttolerance="10"
     gridtolerance="10"
     guidetolerance="10"
     inkscape:pageopacity="0"
     inkscape:pageshadow="2"
     inkscape:window-width="1918"
     inkscape:window-height="2054"
     id="namedview57"
     showgrid="false"
     fit-margin-top="2"
     fit-margin-left="0.1"
     fit-margin-right="1"
     fit-margin-bottom="2"
     inkscape:zoom="2.8284271"
     inkscape:cx="154.298"
     inkscape:cy="15.885601"
     inkscape:window-x="1900"
     inkscape:window-y="0"
     inkscape:window-maximized="0"
     inkscape:current-layer="svg55"
     inkscape:document-rotation="0" />
  <defs
     id="defs4">
    <style
       id="style2">.cls-1{fill:#3b4252;}.cls-2{fill:#5e81ac;}</style>
  </defs>
  <path
     class="cls-2"
     d="m 78.213002,86.878889 v -30.13 c -0.67,0 -20,-0.42 -33.66,0.15 -10.55,0.44 -19.85,3.62 -28,10.22 C 2.590033,78.280905 -3.1886061,96.808172 1.9530018,113.92889 c 5.93,19.57 22.8400002,31.87 41.6900002,31.75 l 34.53,-0.15 v -34.73 c 0.38,0 -10.3,0.07 -27.08,0.07 -6.290905,-0.20357 -11.355477,-5.23317 -11.602633,-11.522514 -0.247156,-6.289341 4.407103,-11.700872 10.662633,-12.397487 0.32,-0.03 11.78,-0.09 28.06,-0.07 z"
     id="path48"
     sodipodi:nodetypes="cccccccccscc" />
  <path
     class="cls-1"
     d="m 183.94301,74.028889 c -0.67,-0.79 -1.38,-1.56 -2.12,-2.3 14.55,-18.53 11.69,-44.87 -5.62,-58.84 -8.11,-6.5400001 -16.87,-10.2000001 -27.32,-10.6400001 -13.39,-0.56 -60.930008,0 -60.930008,0 V 145.67889 h 63.720008 c 16.95295,0.002 32.33154,-9.93731 39.29337,-25.39485 6.96182,-15.45754 4.21303,-33.560824 -7.02337,-46.255151 z m -65.54,-42 h 24.22 c 6.72256,0.236113 12.11131,5.642911 12.32496,12.366217 0.21365,6.723306 -4.82096,12.46133 -11.51496,13.123783 v 0 c 0,0 -0.55828,0.07 -1.25,0.07 h -23.78 z m 0,78.930001 V 87.298889 h 28.59 c 6.53353,0 11.83,5.296472 11.83,11.83 0,6.533531 -5.29647,11.904221 -11.83,11.904221 l -28.59,-0.0742 z"
     id="path50"
     sodipodi:nodetypes="cccccccscccsscsccccssccc" />
  <path
     class="cls-2"
     d="m 51.833002,2.3088889 c -14.638346,-0.012462 -28.600188,6.1621296 -38.44,17.0000001 -3.8013927,4.168107 -6.2278926,9.405157 -6.9500002,15 -0.613522,5.535132 -0.9073431,11.101037 -0.88,16.67 H 37.833002 c 0.57,-8.58 4.66,-18.27 14.39,-19 0,0 1.117813,-0.07031 2.42,-0.07 h 22.79 V 2.3388889 Z"
     id="path52"
     sodipodi:nodetypes="cccccccccc" />
</svg>
